<svg xmlns="http://www.w3.org/2000/svg" viewBox="0 0 400 460" fill="none">
  <!-- Background circle -->
  <circle cx="200" cy="230" r="180" fill="rgba(255,255,255,0.05)" stroke="rgba(255,255,255,0.1)" stroke-width="1"/>
  
  <!-- Body/Uniform -->
  <ellipse cx="200" cy="310" rx="90" ry="110" fill="#2563eb"/>
  <rect x="155" y="260" width="90" height="110" fill="#1d4ed8" rx="4"/>
  
  <!-- White coat overlay -->
  <path d="M155 265 Q145 280 142 300 L142 370 Q160 375 200 375 Q240 375 258 370 L258 300 Q255 280 245 265 Z" fill="white" opacity="0.15"/>
  
  <!-- ID/Name badge -->
  <rect x="178" y="285" width="44" height="28" rx="4" fill="white" opacity="0.9"/>
  <rect x="184" y="291" width="28" height="3" rx="2" fill="#1d4ed8"/>
  <rect x="184" y="297" width="20" height="2" rx="1" fill="#93c5fd"/>
  <rect x="184" y="302" width="24" height="2" rx="1" fill="#93c5fd"/>
  
  <!-- Cross symbol on uniform -->
  <rect x="192" y="340" width="16" height="4" rx="2" fill="white" opacity="0.8"/>
  <rect x="198" y="334" width="4" height="16" rx="2" fill="white" opacity="0.8"/>
  
  <!-- Stethoscope -->
  <path d="M160 280 Q148 295 148 312 Q148 326 158 332 Q170 338 178 330 Q186 322 182 310" stroke="#60a5fa" stroke-width="3" fill="none" stroke-linecap="round"/>
  <circle cx="182" cy="308" r="8" fill="#1d4ed8" stroke="#60a5fa" stroke-width="2"/>
  <circle cx="182" cy="308" r="3" fill="#93c5fd"/>
  
  <!-- Head/Face -->
  <ellipse cx="200" cy="160" rx="52" ry="58" fill="#fbbf24"/>
  
  <!-- Hair/Cap -->
  <path d="M150 148 Q155 100 200 96 Q245 100 250 148 Q235 130 200 128 Q165 130 150 148 Z" fill="#1e293b"/>
  <!-- Nurse cap -->
  <path d="M162 138 Q200 118 238 138 L238 148 Q200 130 162 148 Z" fill="white"/>
  <rect x="188" y="130" width="24" height="10" rx="3" fill="white"/>
  <rect x="194" y="132" width="12" height="2" rx="1" fill="#ef4444"/>
  <rect x="199" y="128" width="2" height="8" rx="1" fill="#ef4444"/>
  
  <!-- Face features -->
  <ellipse cx="186" cy="162" rx="7" ry="8" fill="white"/>
  <ellipse cx="214" cy="162" rx="7" ry="8" fill="white"/>
  <ellipse cx="186" cy="163" rx="4" ry="5" fill="#1e293b"/>
  <ellipse cx="214" cy="163" rx="4" ry="5" fill="#1e293b"/>
  <ellipse cx="187" cy="162" rx="1.5" ry="2" fill="white"/>
  <ellipse cx="215" cy="162" rx="1.5" ry="2" fill="white"/>
  <path d="M188 178 Q200 186 212 178" stroke="#92400e" stroke-width="2" fill="none" stroke-linecap="round"/>
  
  <!-- Ears -->
  <ellipse cx="148" cy="168" rx="8" ry="10" fill="#fbbf24"/>
  <ellipse cx="252" cy="168" rx="8" ry="10" fill="#fbbf24"/>
  
  <!-- Arms -->
  <path d="M155 275 Q128 295 120 330 Q115 348 125 358" stroke="#2563eb" stroke-width="28" fill="none" stroke-linecap="round"/>
  <path d="M245 275 Q272 295 280 330 Q285 348 275 358" stroke="#2563eb" stroke-width="28" fill="none" stroke-linecap="round"/>
  
  <!-- Hands -->
  <ellipse cx="124" cy="360" rx="14" ry="12" fill="#fbbf24"/>
  <ellipse cx="276" cy="360" rx="14" ry="12" fill="#fbbf24"/>
  
  <!-- Clipboard in right hand -->
  <rect x="280" y="320" width="42" height="56" rx="4" fill="white" stroke="#e2e8f0" stroke-width="1"/>
  <rect x="293" y="314" width="16" height="10" rx="3" fill="#94a3b8"/>
  <rect x="286" y="330" width="30" height="3" rx="1" fill="#e2e8f0"/>
  <rect x="286" y="337" width="26" height="2" rx="1" fill="#e2e8f0"/>
  <rect x="286" y="343" width="28" height="2" rx="1" fill="#e2e8f0"/>
  <rect x="286" y="349" width="22" height="2" rx="1" fill="#e2e8f0"/>
  <path d="M286 358 L290 354 L294 360 L298 352 L302 360" stroke="#10b981" stroke-width="2" fill="none" stroke-linecap="round" stroke-linejoin="round"/>
  
  <!-- Sparkles -->
  <g fill="#fbbf24" opacity="0.8">
    <path d="M60 80 L63 74 L66 80 L72 83 L66 86 L63 92 L60 86 L54 83 Z"/>
    <path d="M330 50 L332 46 L334 50 L338 52 L334 54 L332 58 L330 54 L326 52 Z"/>
    <path d="M350 200 L352 196 L354 200 L358 202 L354 204 L352 208 L350 204 L346 202 Z"/>
    <path d="M40 300 L42 296 L44 300 L48 302 L44 304 L42 308 L40 304 L36 302 Z"/>
  </g>
  
  <!-- Medical cross sparkle -->
  <g opacity="0.6" fill="#60a5fa">
    <rect x="76" y="200" width="16" height="4" rx="2"/>
    <rect x="82" y="194" width="4" height="16" rx="2"/>
    <rect x="310" y="150" width="12" height="3" rx="1.5"/>
    <rect x="315" y="145" width="3" height="12" rx="1.5"/>
  </g>
</svg>
